<?xml version="1.0" standalone="no"?>
<!DOCTYPE svg PUBLIC "-//W3C//DTD SVG 20010904//EN"
 "http://www.w3.org/TR/2001/REC-SVG-20010904/DTD/svg10.dtd">
<svg version="1.0" xmlns="http://www.w3.org/2000/svg"
 width="1090.000000pt" height="1090.000000pt" viewBox="0 0 1090.000000 1090.000000"
 preserveAspectRatio="xMidYMid meet">
<metadata>
Created by potrace 1.14, written by Peter Selinger 2001-2017
</metadata>
<g transform="translate(0.000000,1090.000000) scale(0.100000,-0.100000)"
fill="#000000" stroke="none">
<path d="M99 8448 c-17 -3 -46 -20 -63 -37 l-31 -31 -3 -2908 c-1 -1599 0
-2921 3 -2938 7 -39 41 -79 78 -93 19 -7 197 -11 515 -11 465 0 488 1 519 20
18 10 40 31 50 47 17 26 18 88 19 1213 1 652 2 1188 3 1193 0 4 665 7 1476 7
l1475 0 0 -1188 c0 -1138 1 -1189 19 -1222 37 -71 20 -68 571 -69 474 -1 496
0 527 19 18 10 40 31 50 47 17 26 18 151 19 2933 0 1876 -3 2916 -10 2935 -12
36 -32 58 -71 77 -25 12 -114 14 -521 13 -545 -1 -522 2 -564 -68 -19 -31 -20
-60 -20 -1222 l0 -1190 -1477 0 -1478 0 0 1195 0 1195 -24 32 c-43 58 -43 58
-558 58 -260 0 -486 -3 -504 -7z m821 -1444 c0 -1314 -4 -1231 65 -1274 32
-20 45 -20 1676 -20 1612 0 1645 0 1676 20 18 10 40 31 50 47 17 26 18 87 18
1218 l0 1190 328 3 327 2 0 -2747 0 -2748 -322 1 c-178 1 -325 2 -328 3 -3 0
-5 533 -4 1183 0 1242 1 1212 -40 1254 -42 41 13 40 -1711 39 l-1641 -1 -32
-23 c-67 -47 -62 40 -62 -1268 l0 -1188 -325 0 c-282 0 -325 2 -326 15 -3 41
-5 5466 -1 5473 2 4 149 7 327 7 l325 0 0 -1186z"/>
<path d="M6290 8408 c-41 -16 -88 -36 -105 -43 -23 -10 -278 -113 -430 -175
-11 -4 -36 -15 -55 -23 -166 -72 -156 -62 -127 -131 9 -21 17 -40 17 -42 0 -4
27 -67 56 -129 17 -37 86 -207 120 -295 14 -36 29 -74 34 -85 31 -70 42 -93
55 -115 13 -23 48 -98 51 -110 0 -3 9 -23 19 -45 9 -22 57 -133 106 -247 48
-114 97 -227 108 -252 12 -25 21 -47 21 -50 0 -3 12 -31 26 -63 15 -32 33 -73
40 -90 8 -18 20 -48 28 -65 8 -18 76 -177 152 -353 75 -176 144 -338 154 -360
10 -22 57 -132 105 -245 106 -250 150 -353 175 -405 10 -22 28 -63 39 -91 11
-28 29 -73 41 -100 43 -97 53 -121 97 -224 25 -58 53 -123 63 -145 10 -22 30
-69 45 -105 15 -36 34 -80 41 -97 8 -18 15 -36 15 -40 0 -5 7 -19 15 -33 7
-14 70 -158 139 -320 178 -418 204 -477 236 -548 16 -35 29 -69 29 -76 0 -6 4
-16 9 -21 5 -6 28 -55 51 -110 23 -55 48 -113 55 -130 8 -16 42 -95 75 -175
83 -196 99 -233 108 -249 6 -11 76 -14 400 -13 216 0 400 1 410 1 11 1 26 15
35 34 17 35 18 37 107 252 35 83 73 173 86 202 13 28 24 55 24 58 0 3 8 25 19
48 15 35 392 929 573 1362 28 66 56 134 63 150 8 17 68 158 133 315 66 157
128 303 137 325 10 22 19 45 20 50 2 6 12 31 23 55 11 25 32 74 47 110 15 36
35 81 43 100 9 19 16 37 16 40 1 3 10 26 20 50 11 25 28 65 38 90 10 25 25 57
33 72 8 14 15 31 15 37 0 6 16 45 35 87 19 41 35 78 35 80 0 5 69 173 95 229
16 36 38 88 40 95 14 43 39 94 50 102 5 4 7 8 3 8 -4 0 3 25 17 56 14 31 25
63 25 70 0 8 5 14 10 14 6 0 10 6 10 14 0 14 11 42 84 209 8 17 44 104 81 192
36 88 72 174 80 190 89 203 125 286 125 293 0 4 10 25 21 47 17 31 23 61 25
135 2 52 6 185 9 295 4 110 8 237 9 283 1 45 -1 82 -5 82 -3 0 -84 -54 -179
-120 -94 -66 -176 -120 -181 -120 -5 0 -9 -3 -9 -7 0 -5 -37 -33 -83 -63 -45
-30 -91 -63 -101 -72 -11 -10 -27 -20 -36 -23 -9 -3 -25 -24 -35 -48 -10 -23
-36 -79 -57 -125 -21 -46 -38 -85 -38 -87 0 -2 -17 -41 -39 -87 -88 -190 -111
-240 -111 -244 0 -3 -10 -26 -21 -52 -12 -26 -30 -67 -41 -92 -12 -25 -36 -79
-55 -120 -19 -41 -41 -88 -48 -105 -8 -16 -32 -70 -54 -118 -23 -49 -41 -90
-41 -92 0 -5 -98 -216 -110 -237 -6 -10 -10 -25 -10 -33 0 -8 -4 -15 -10 -15
-5 0 -10 -8 -10 -18 0 -10 -4 -22 -8 -28 -5 -5 -18 -31 -30 -59 -11 -27 -43
-98 -71 -158 -28 -59 -51 -109 -51 -112 0 -2 -20 -46 -44 -97 -24 -51 -56
-121 -71 -155 -16 -36 -32 -60 -38 -56 -6 4 -8 0 -4 -10 5 -14 -49 -140 -207
-480 -20 -43 -36 -80 -36 -82 0 -2 -22 -52 -50 -110 -27 -58 -50 -108 -50
-110 0 -3 -56 -125 -111 -241 -16 -34 -29 -64 -29 -67 0 -3 -22 -51 -49 -108
-71 -152 -111 -240 -111 -244 0 -1 -23 -51 -50 -109 -27 -58 -50 -108 -50
-110 0 -4 -66 -148 -111 -242 -16 -33 -29 -63 -29 -66 0 -3 -23 -54 -51 -114
-45 -96 -52 -106 -62 -89 -6 11 -12 22 -12 25 -1 3 -11 27 -23 54 -12 27 -22
52 -22 55 0 4 -12 31 -26 61 -14 30 -27 61 -29 69 -2 9 -12 36 -24 61 -11 25
-66 155 -122 290 -55 135 -106 259 -114 275 -21 50 -111 265 -144 350 -18 44
-39 95 -48 115 -26 59 -40 91 -77 185 -20 50 -41 99 -45 110 -12 27 -46 107
-81 190 -7 17 -28 68 -47 115 -19 47 -41 99 -48 115 -22 49 -196 469 -199 480
-1 6 -10 25 -19 42 -10 18 -17 34 -16 35 1 3 -15 42 -44 108 -11 25 -20 50
-22 55 -1 6 -14 36 -28 69 -15 32 -27 62 -27 67 0 5 -4 17 -9 27 -5 9 -16 34
-25 55 -9 20 -22 52 -30 70 -8 17 -35 84 -61 147 -26 63 -58 140 -71 170 -13
30 -46 111 -74 180 -28 69 -57 139 -65 155 -7 17 -29 71 -50 120 -20 50 -43
105 -51 123 -8 18 -17 41 -19 52 -2 10 -9 28 -15 40 -6 12 -13 29 -15 38 -4
18 -69 193 -85 227 -5 11 -34 85 -64 165 -30 80 -63 164 -73 187 l-18 42 -75
-31z"/>
</g>
</svg>
